<svg width="357" height="76" viewBox="0 0 357 76" fill="none" xmlns="http://www.w3.org/2000/svg">
<path d="M341.416 31.9825C341.214 29.7761 340.315 28.0611 338.72 26.8376C337.144 25.594 334.892 24.9722 331.964 24.9722C330.025 24.9722 328.409 25.2229 327.117 25.7244C325.824 26.2258 324.855 26.9178 324.208 27.8004C323.562 28.6629 323.229 29.6558 323.209 30.779C323.168 31.7017 323.35 32.514 323.754 33.2161C324.178 33.9181 324.784 34.5399 325.572 35.0815C326.38 35.603 327.349 36.0643 328.48 36.4655C329.611 36.8667 330.883 37.2177 332.297 37.5185L337.629 38.722C340.699 39.384 343.405 40.2665 345.748 41.3697C348.111 42.4729 350.091 43.7867 351.686 45.3111C353.302 46.8355 354.524 48.5906 355.352 50.5764C356.18 52.5621 356.604 54.7886 356.624 57.2558C356.604 61.147 355.614 64.4867 353.655 67.2748C351.696 70.0629 348.879 72.1991 345.203 73.6834C341.547 75.1677 337.134 75.9098 331.964 75.9098C326.773 75.9098 322.249 75.1376 318.392 73.5931C314.534 72.0486 311.535 69.7018 309.394 66.5527C307.253 63.4036 306.152 59.422 306.092 54.6081H320.452C320.573 56.5938 321.108 58.2486 322.057 59.5725C323.007 60.8963 324.309 61.8992 325.965 62.5812C327.642 63.2632 329.581 63.6042 331.782 63.6042C333.802 63.6042 335.519 63.3334 336.932 62.7918C338.366 62.2502 339.467 61.4981 340.235 60.5353C341.002 59.5725 341.396 58.4693 341.416 57.2257C341.396 56.0623 341.032 55.0694 340.325 54.247C339.619 53.4046 338.528 52.6825 337.054 52.0808C335.599 51.459 333.741 50.8873 331.479 50.3658L324.996 48.8614C319.624 47.6379 315.392 45.6621 312.302 42.9342C309.212 40.1863 307.677 36.4755 307.697 31.802C307.677 27.9909 308.707 24.6512 310.788 21.7829C312.868 18.9146 315.746 16.6781 319.422 15.0735C323.098 13.4688 327.288 12.6665 331.994 12.6665C336.801 12.6665 340.972 13.4789 344.506 15.1036C348.061 16.7082 350.818 18.9648 352.777 21.8732C354.736 24.7816 355.736 28.1514 355.776 31.9825H341.416Z" fill="#180831"/>
<path d="M229.148 13.5088H247.719L263.473 51.6594H264.2L279.954 13.5088H298.525V75.1274H283.922V37.2777H283.407L268.502 74.7363H259.171L244.266 37.0671H243.751V75.1274H229.148V13.5088Z" fill="#180831"/>
<path d="M135.735 75.9998C130.847 75.9998 126.646 75.0069 123.132 73.0211C119.638 71.0153 116.942 68.2272 115.043 64.6569C113.165 61.0665 112.226 56.9044 112.226 52.1707C112.226 47.4169 113.165 43.2548 115.043 39.6845C116.942 36.0941 119.638 33.306 123.132 31.3202C126.646 29.3144 130.847 28.3115 135.735 28.3115C140.622 28.3115 144.813 29.3144 148.307 31.3202C151.821 33.306 154.518 36.0941 156.396 39.6845C158.295 43.2548 159.244 47.4169 159.244 52.1707C159.244 56.9044 158.295 61.0665 156.396 64.6569C154.518 68.2272 151.821 71.0153 148.307 73.0211C144.813 75.0069 140.622 75.9998 135.735 75.9998ZM135.826 64.8976C137.603 64.8976 139.108 64.356 140.34 63.2729C141.572 62.1897 142.511 60.6854 143.157 58.7598C143.824 56.8342 144.157 54.6077 144.157 52.0804C144.157 49.513 143.824 47.2665 143.157 45.3409C142.511 43.4153 141.572 41.9109 140.34 40.8278C139.108 39.7447 137.603 39.2031 135.826 39.2031C133.988 39.2031 132.433 39.7447 131.16 40.8278C129.908 41.9109 128.949 43.4153 128.282 45.3409C127.636 47.2665 127.313 49.513 127.313 52.0804C127.313 54.6077 127.636 56.8342 128.282 58.7598C128.949 60.6854 129.908 62.1897 131.16 63.2729C132.433 64.356 133.988 64.8976 135.826 64.8976Z" fill="#009279"/>
<path d="M84.3626 75.9998C79.4952 75.9998 75.2943 75.047 71.7598 73.1415C68.2456 71.2159 65.5392 68.478 63.6407 64.9277C61.7624 61.3573 60.8232 57.115 60.8232 52.2008C60.8232 47.4269 61.7725 43.2548 63.671 39.6845C65.5695 36.0941 68.2456 33.306 71.6992 31.3202C75.1529 29.3144 79.2225 28.3115 83.9082 28.3115C87.2205 28.3115 90.25 28.823 92.9968 29.846C95.7435 30.8689 98.1167 32.3833 100.116 34.3891C102.116 36.395 103.671 38.8721 104.782 41.8207C105.892 44.7492 106.448 48.1089 106.448 51.8999V55.5705H66.0037V47.0258H92.6635C92.6433 45.4612 92.2697 44.0672 91.5426 42.8436C90.8155 41.6201 89.8158 40.6673 88.5434 39.9854C87.2912 39.2833 85.8471 38.9323 84.2112 38.9323C82.555 38.9323 81.0706 39.3034 79.7578 40.0455C78.445 40.7676 77.4048 41.7605 76.6374 43.0242C75.8699 44.2678 75.4659 45.6819 75.4255 47.2665V55.9617C75.4255 57.8471 75.7992 59.5019 76.5465 60.9261C77.2938 62.3301 78.3541 63.4233 79.7275 64.2056C81.1008 64.9878 82.7368 65.379 84.6353 65.379C85.9481 65.379 87.1397 65.1984 88.2101 64.8374C89.2806 64.4764 90.1995 63.9448 90.967 63.2428C91.7345 62.5407 92.3101 61.6782 92.6938 60.6553L106.296 61.0464C105.731 64.0752 104.489 66.7128 102.57 68.9594C100.672 71.1858 98.1773 72.9208 95.0872 74.1644C91.997 75.388 88.4222 75.9998 84.3626 75.9998Z" fill="#009279"/>
<path d="M53.1796 13.5088V75.1274H40.4556L15.765 39.5643H15.3711V75.1274H0.375V13.5088H13.2808L37.6987 49.0117H38.2137V13.5088H53.1796Z" fill="#009279"/>
<rect x="153.959" width="12.6667" height="12.6667" fill="#180831"/>
<rect x="171.375" y="4.75" width="7.91667" height="7.91667" fill="#180831"/>
<rect x="158.709" y="17.4165" width="7.91667" height="7.91667" fill="#180831"/>
<path d="M189.735 13.5093C196.057 13.5093 201.5 14.7424 206.064 17.2095C210.649 19.6565 214.184 23.187 216.668 27.8003C219.152 32.3936 220.395 37.89 220.395 44.2886C220.394 50.707 219.152 56.2231 216.668 60.8364C214.204 65.4497 210.679 68.9894 206.095 71.4565C201.51 73.9036 196.067 75.1274 189.766 75.1274H166.832V33.2505H174.542V25.3335H179.292V20.5835H187.209V13.5093H189.735ZM181.828 62.4312H189.19C192.664 62.4311 195.603 61.8493 198.006 60.686C200.429 59.5026 202.257 57.5866 203.489 54.939C204.741 52.2713 205.368 48.7212 205.368 44.2886C205.368 39.8558 204.741 36.3254 203.489 33.6978C202.237 31.0501 200.389 29.1443 197.945 27.981C195.522 26.7976 192.533 26.2056 188.979 26.2056H181.828V62.4312Z" fill="#180831"/>
</svg>
