<svg width="142" height="30" viewBox="0 0 142 30" fill="none" xmlns="http://www.w3.org/2000/svg">
<path d="M135.938 12.6241C135.857 11.7532 135.499 11.0762 134.863 10.5932C134.235 10.1023 133.337 9.85686 132.17 9.85686C131.397 9.85686 130.753 9.95583 130.238 10.1538C129.723 10.3517 129.336 10.6249 129.079 10.9733C128.821 11.3137 128.688 11.7057 128.68 12.1491C128.664 12.5133 128.736 12.834 128.897 13.1111C129.067 13.3882 129.308 13.6337 129.622 13.8474C129.944 14.0533 130.33 14.2354 130.781 14.3938C131.232 14.5521 131.739 14.6907 132.303 14.8095L134.428 15.2845C135.652 15.5458 136.731 15.8942 137.664 16.3297C138.606 16.7652 139.395 17.2838 140.031 17.8855C140.675 18.4873 141.162 19.1801 141.492 19.964C141.822 20.7478 141.991 21.6267 142 22.6006C141.991 24.1367 141.597 25.455 140.816 26.5556C140.035 27.6561 138.912 28.4994 137.447 29.0853C135.99 29.6712 134.231 29.9642 132.17 29.9642C130.101 29.9642 128.298 29.6594 126.76 29.0497C125.222 28.44 124.027 27.5136 123.174 26.2705C122.32 25.0274 121.882 23.4557 121.857 21.5555H127.581C127.63 22.3393 127.843 22.9925 128.221 23.5151C128.6 24.0377 129.119 24.4336 129.779 24.7028C130.447 24.972 131.22 25.1066 132.098 25.1066C132.903 25.1066 133.587 24.9997 134.15 24.7859C134.722 24.5721 135.161 24.2752 135.467 23.8952C135.773 23.5151 135.93 23.0796 135.938 22.5887C135.93 22.1295 135.785 21.7376 135.503 21.4129C135.221 21.0804 134.786 20.7953 134.199 20.5578C133.619 20.3124 132.878 20.0867 131.977 19.8808L129.393 19.287C127.251 18.804 125.565 18.0241 124.333 16.9473C123.101 15.8625 122.489 14.3977 122.497 12.5529C122.489 11.0485 122.9 9.73017 123.729 8.59792C124.558 7.46567 125.706 6.58283 127.171 5.94941C128.636 5.31598 130.306 4.99927 132.182 4.99927C134.098 4.99927 135.76 5.31994 137.169 5.96128C138.586 6.59471 139.685 7.48547 140.466 8.63355C141.247 9.78164 141.645 11.1118 141.661 12.6241H135.938Z" fill="white"/>
<path d="M91.1875 5.33252H98.5898L104.869 20.3922H105.159L111.438 5.33252H118.841V29.6561H113.02V14.7151H112.815L106.874 29.5017H103.154L97.2132 14.632H97.0079V29.6561H91.1875V5.33252Z" fill="white"/>
<path d="M53.9527 29.9999C52.0045 29.9999 50.33 29.608 48.9292 28.8241C47.5365 28.0323 46.4618 26.9318 45.7051 25.5224C44.9564 24.1051 44.582 22.4622 44.582 20.5935C44.582 18.717 44.9564 17.0741 45.7051 15.6647C46.4618 14.2474 47.5365 13.1468 48.9292 12.363C50.33 11.5712 52.0045 11.1753 53.9527 11.1753C55.9009 11.1753 57.5714 11.5712 58.9641 12.363C60.3648 13.1468 61.4396 14.2474 62.1883 15.6647C62.945 17.0741 63.3234 18.717 63.3234 20.5935C63.3234 22.4622 62.945 24.1051 62.1883 25.5224C61.4396 26.9318 60.3648 28.0323 58.9641 28.8241C57.5714 29.608 55.9009 29.9999 53.9527 29.9999ZM53.9889 25.6174C54.6974 25.6174 55.2971 25.4036 55.7882 24.9761C56.2793 24.5485 56.6536 23.9547 56.9112 23.1946C57.1769 22.4344 57.3097 21.5556 57.3097 20.5579C57.3097 19.5444 57.1769 18.6576 56.9112 17.8975C56.6536 17.1374 56.2793 16.5436 55.7882 16.116C55.2971 15.6885 54.6974 15.4747 53.9889 15.4747C53.2563 15.4747 52.6365 15.6885 52.1293 16.116C51.6302 16.5436 51.2478 17.1374 50.9821 17.8975C50.7245 18.6576 50.5957 19.5444 50.5957 20.5579C50.5957 21.5556 50.7245 22.4344 50.9821 23.1946C51.2478 23.9547 51.6302 24.5485 52.1293 24.9761C52.6365 25.4036 53.2563 25.6174 53.9889 25.6174Z" fill="#009279"/>
<path d="M33.4745 29.9999C31.5344 29.9999 29.8599 29.6238 28.4511 28.8716C27.0503 28.1115 25.9716 27.0307 25.2148 25.6293C24.4661 24.2199 24.0918 22.5453 24.0918 20.6054C24.0918 18.721 24.4702 17.0741 25.2269 15.6647C25.9836 14.2474 27.0503 13.1468 28.4269 12.363C29.8036 11.5712 31.4257 11.1753 33.2934 11.1753C34.6137 11.1753 35.8212 11.3772 36.9161 11.781C38.0109 12.1848 38.9569 12.7826 39.7539 13.5744C40.5508 14.3662 41.1707 15.344 41.6135 16.5079C42.0563 17.664 42.2777 18.9902 42.2777 20.4867V21.9356H26.1567V18.5626H36.7833C36.7752 17.945 36.6263 17.3947 36.3365 16.9118C36.0466 16.4288 35.6481 16.0527 35.141 15.7835C34.6418 15.5063 34.0662 15.3678 33.4142 15.3678C32.754 15.3678 32.1623 15.5143 31.6391 15.8072C31.1158 16.0923 30.7012 16.4842 30.3953 16.983C30.0893 17.4739 29.9283 18.0321 29.9122 18.6576V22.09C29.9122 22.8343 30.0612 23.4875 30.359 24.0497C30.6569 24.6039 31.0795 25.0355 31.627 25.3442C32.1744 25.653 32.8265 25.8074 33.5832 25.8074C34.1065 25.8074 34.5815 25.7362 35.0081 25.5937C35.4348 25.4511 35.8011 25.2413 36.107 24.9642C36.4129 24.6871 36.6424 24.3466 36.7953 23.9428L42.2173 24.0972C41.9919 25.2928 41.4968 26.334 40.732 27.2208C39.9752 28.0997 38.981 28.7845 37.7493 29.2754C36.5176 29.7584 35.0927 29.9999 33.4745 29.9999Z" fill="#009279"/>
<path d="M21.0478 5.33252V29.6561H15.976L6.13441 15.6178H5.97742V29.6561H0V5.33252H5.14421L14.8771 19.3471H15.0824V5.33252H21.0478Z" fill="#009279"/>
<rect x="61.2148" width="5.0489" height="5.00009" fill="#D9D9D9"/>
<rect x="68.1621" y="1.875" width="3.15556" height="3.12506" fill="#D9D9D9"/>
<rect x="63.1094" y="6.87427" width="3.15556" height="3.12506" fill="#D9D9D9"/>
<path d="M75.4805 5.33276C78.0002 5.33276 80.1699 5.81985 81.9893 6.7937C83.8167 7.75968 85.2256 9.15326 86.2158 10.9744C87.2059 12.7874 87.7011 14.9566 87.7012 17.4822C87.7012 20.0158 87.206 22.1933 86.2158 24.0144C85.2337 25.8354 83.8292 27.2329 82.002 28.2068C80.1746 29.1727 78.0048 29.656 75.4932 29.656H66.3516V13.1248H69.4189V9.99976H71.3125V8.12476H74.4678V5.33276H75.4805ZM72.3291 24.6443H75.2637C76.6483 24.6443 77.8194 24.414 78.7773 23.9548C79.7432 23.4878 80.4718 22.7321 80.9629 21.6873C81.462 20.6342 81.7119 19.232 81.7119 17.4822C81.7119 15.7325 81.462 14.3387 80.9629 13.3015C80.4638 12.2565 79.7269 11.5048 78.7529 11.0457C77.7869 10.5786 76.5955 10.3445 75.1787 10.3445H72.3291V24.6443Z" fill="white"/>
</svg>
