<svg width="121" height="76" viewBox="0 0 121 76" fill="none" xmlns="http://www.w3.org/2000/svg">
<path d="M52.8046 13.5088V75.1274H40.0806L15.39 39.5643H14.9961V75.1274H0V13.5088H12.9058L37.3237 49.0117H37.8387V13.5088H52.8046Z" fill="#009279"/>
<rect x="53.584" width="12.6667" height="12.6667" fill="white"/>
<rect x="71" y="4.75" width="7.91667" height="7.91667" fill="white"/>
<rect x="58.334" y="17.4165" width="7.91667" height="7.91667" fill="white"/>
<path d="M89.3604 13.5093C95.6818 13.5093 101.125 14.7424 105.689 17.2095C110.274 19.6565 113.809 23.187 116.293 27.8003C118.777 32.3936 120.02 37.89 120.02 44.2886C120.019 50.707 118.777 56.2231 116.293 60.8364C113.829 65.4497 110.304 68.9894 105.72 71.4565C101.135 73.9036 95.692 75.1274 89.3906 75.1274H66.457V33.2505H74.167V25.3335H78.917V20.5835H86.834V13.5093H89.3604ZM81.4531 62.4312H88.8154C92.289 62.4311 95.2275 61.8493 97.6309 60.686C100.054 59.5026 101.882 57.5866 103.114 54.939C104.366 52.2713 104.993 48.7212 104.993 44.2886C104.993 39.8558 104.366 36.3254 103.114 33.6978C101.862 31.0501 100.014 29.1443 97.5703 27.981C95.1468 26.7976 92.1579 26.2056 88.6035 26.2056H81.4531V62.4312Z" fill="white"/>
</svg>
